<svg width="169" height="40" viewBox="0 0 169 40" fill="none" xmlns="http://www.w3.org/2000/svg">
<path d="M42.7921 11.883H36.7139V7.82492H53.2643V11.883H47.2035V27.8778H42.7921V11.883ZM50.0125 20.2254C50.0125 15.8368 53.1186 12.2251 57.5883 12.2251C62.6991 12.2251 65.036 16.2078 65.036 20.5674C65.036 20.9094 65.036 21.3095 64.9777 21.7269H54.319C54.4502 22.6036 54.9075 23.3993 55.6003 23.9565C56.2932 24.5137 57.1712 24.7918 58.0604 24.7357C58.7563 24.7435 59.4462 24.6062 60.0856 24.3326C60.725 24.059 61.2996 23.6552 61.7725 23.1472L64.2551 25.356C63.5129 26.2877 62.5606 27.0325 61.4753 27.5301C60.39 28.0276 59.2021 28.2639 58.0079 28.2199C53.4099 28.2199 50.0183 24.985 50.0183 20.2254H50.0125ZM60.7935 18.9905C60.5371 17.0426 59.3949 15.7267 57.5708 15.7267C55.7468 15.7267 54.6046 17.0137 54.2608 18.9905H60.7935ZM66.9591 12.5149H71.2948V14.6947C72.2972 13.4019 73.5793 12.2251 75.7763 12.2251C79.0572 12.2251 80.9687 14.4049 80.9687 17.9296V27.8778H76.6329V19.3094C76.6329 17.2455 75.6655 16.1846 74.0047 16.1846C72.3438 16.1846 71.2948 17.2455 71.2948 19.3094V27.8778H66.9591V12.5149ZM82.7519 20.1674C82.7519 15.0368 86.0911 12.2251 89.7101 12.2251C90.6324 12.2087 91.5455 12.4103 92.3743 12.8135C93.203 13.2166 93.9237 13.8097 94.477 14.544V6.95532H98.8128V27.8836H94.477V25.6748C93.9559 26.4543 93.2463 27.091 92.4134 27.5265C91.5805 27.9621 90.6509 28.1826 89.7101 28.1677C86.1436 28.1677 82.7519 25.356 82.7519 20.1674V20.1674ZM94.5353 20.1674C94.5353 17.6166 92.8511 15.9238 90.8231 15.9238C88.7951 15.9238 87.0876 17.5876 87.0876 20.2254C87.0876 22.8631 88.801 24.469 90.8231 24.469C92.8453 24.469 94.5353 22.7762 94.5353 20.1674ZM100.101 20.2254C100.101 15.8368 103.213 12.2251 107.677 12.2251C112.787 12.2251 115.124 16.2078 115.124 20.5674C115.124 20.9094 115.095 21.3095 115.066 21.7269H104.425C104.557 22.603 105.015 23.3979 105.707 23.9549C106.4 24.5119 107.277 24.7905 108.166 24.7357C108.864 24.7451 109.556 24.6086 110.198 24.335C110.839 24.0613 111.416 23.6567 111.89 23.1472L114.372 25.356C113.63 26.2877 112.678 27.0325 111.593 27.5301C110.507 28.0276 109.319 28.2639 108.125 28.2199C103.533 28.2199 100.136 24.985 100.136 20.2254H100.101ZM110.888 18.9905C110.631 17.0426 109.489 15.7267 107.659 15.7267C105.829 15.7267 104.693 17.0137 104.349 18.9905H110.888ZM117.047 12.5149H121.383V15.6107C122.269 13.4889 123.714 12.1323 126.267 12.2251V16.8107H126.039C123.155 16.8107 121.377 18.5499 121.377 22.2254V27.901H117.042V12.5149H117.047Z" fill="#FF3214"/>
<path d="M124.286 27.8778V25.1879H126.966V27.8778H124.286ZM128.948 13.0599H131.121V16.0397C132.322 14.2657 134.035 12.7468 136.774 12.7468C140.312 12.7468 143.82 15.5527 143.82 20.4862C143.82 25.327 140.323 28.1967 136.774 28.1967C135.64 28.1938 134.525 27.9025 133.536 27.3506C132.546 26.7986 131.715 26.0043 131.121 25.0429V32.4635H128.924L128.948 13.0599ZM141.588 20.4573C141.588 16.9789 139.193 14.7237 136.395 14.7237C133.598 14.7237 131.063 17.0426 131.063 20.4862C131.063 23.9298 133.656 26.2198 136.395 26.2198C139.251 26.2198 141.588 24.098 141.588 20.4573ZM146.04 13.0599H148.237V16.9267C149.321 14.4628 151.466 12.6831 154.263 12.799V15.1759H154.088C150.865 15.1759 148.26 17.4948 148.26 21.9703V27.8778H146.063V13.0599H146.04ZM153.616 20.4862C153.633 18.9746 154.1 17.5019 154.958 16.254C155.816 15.0061 157.026 14.0388 158.436 13.4744C159.845 12.9099 161.392 12.7734 162.879 13.0822C164.367 13.391 165.729 14.1312 166.794 15.2095C167.86 16.2877 168.58 17.6556 168.864 19.1406C169.149 20.6256 168.985 22.1612 168.393 23.5536C167.801 24.946 166.808 26.1328 165.539 26.9643C164.27 27.7958 162.781 28.2347 161.262 28.2256C160.262 28.2302 159.272 28.0389 158.347 27.6626C157.421 27.2864 156.58 26.7325 155.87 26.0327C155.16 25.3329 154.595 24.5008 154.209 23.5839C153.822 22.6671 153.621 21.6834 153.616 20.6891V20.4862ZM166.74 20.4862C166.74 17.3035 164.374 14.6889 161.262 14.6889C158.15 14.6889 155.871 17.2977 155.871 20.4862C155.871 23.6748 158.202 26.2488 161.32 26.2488C164.438 26.2488 166.746 23.669 166.746 20.4862H166.74Z" fill="#909090"/>
<path d="M5.24484 6.78122C5.34191 6.63219 5.47359 6.50857 5.62877 6.42078C5.78395 6.333 5.95808 6.28364 6.13646 6.27686H24.2603C24.2603 6.27686 24.3069 6.31744 24.3302 6.31744L28.4095 3.19849C27.8456 2.69101 27.1856 2.30045 26.4682 2.04961C25.7508 1.79877 24.9903 1.69269 24.2312 1.73757H6.10732C2.79142 1.73757 0 4.00431 0 7.37255V11.3263L5.24484 6.78122ZM25.1577 13.68L25.0587 25.779V29.0777L22.7917 26.8573H6.10732C5.52456 26.8573 5.4896 26.3587 5.4896 25.779V12.8104L0 13.5409V25.779C0 29.1472 2.79725 31.3908 6.10732 31.3908H20.9269L30.3035 39.9998L30.1811 8.00446L25.1577 13.68Z" fill="#B1B1B1"/>
<path d="M0 14.9557L5.24484 19.7095V12.7527L0 13.46V14.9557Z" fill="#605958"/>
<path d="M15.1051 24.3487L0 13.5773L4.44646 9.66412L15.2567 17.4209L34.3828 0L15.1051 24.3487Z" fill="#FF3214"/>
</svg>
